# xmcd CD database file
#
# Track frame offsets:
#	150
#	23268
#	35885
#	50818
#	65823
#	87608
#	107268
#	176790
#	202825
#	251383
#	270073
#
# Disc length: 3993 seconds
#
# Revision: 1
# Processed by: cddbd v1.5.2PL0 Copyright (c) Steve Scherf et al.
# Submitted via: CDex 1.70beta2
#
DISCID=8e0f970b
DTITLE=Gerard Brooks - Great European Organs No.52 - Gerard Brooks plays the organ of St. Pierre, Douai
DYEAR=1900
DGENRE=Orgel
TTITLE0=Boely - Fantasy and Fugue in B flat
TTITLE1=Boely - Andante in G minor
TTITLE2=Boely - Andante in E flatToccata in B minor
TTITLE3=Boely - Toccata in B minor
TTITLE4=Boely - Larghetto in C sharp minor
TTITLE5=Boely - Fnatasie pour le verset Judex Crederis
TTITLE6=Guilmant - Morceau de Concert
TTITLE7=Philip - Lied
TTITLE8=Philip - Adagio and Fugue
TTITLE9=Debussy - First Arabesque
TTITLE10=Nibelle - Carillon Orleanais
EXTD=
EXTT0=
EXTT1=
EXTT2=
EXTT3=
EXTT4=
EXTT5=
EXTT6=
EXTT7=
EXTT8=
EXTT9=
EXTT10=
PLAYORDER=
